# xmcd
#
# Track frame offsets: 
#        150
#        8674
#        26332
#        39897
#        49228
#        58264
#        68288
#        78447
#        88401
#        98265
#        113847
#        124998
#        137636
#        152142
#        163576
#        171247
#        185320
#        194310
#
# Disc length: 2765 seconds
#
# Revision: 0
# Processed by: cddbd v1.5.2PL0 Copyright (c) Steve Scherf et al.
# Submitted via: ExactAudioCopyFreeDBPlugin 1.0
#
DISCID=e00acb12
DTITLE=Johnny Cash and Marty Robbins - Gunfighter Ballads and More [CD1
DTITLE=of 2)
DYEAR=2018
DGENRE=Ballad
TTITLE0=Johnny Cash - The Rebel-Johnny Yuma
TTITLE1=Marty Robbins - Big Iron
TTITLE2=Johnny Cash - Don't Take Your Guns To Town
TTITLE3=Marty Robbins - Saddle Tramp
TTITLE4=Johnny Cash - Delia's Gone
TTITLE5=Marty Robbins - Five Brothers
TTITLE6=Johnny Cash - Loading Coal
TTITLE7=Marty Robbins - Running Gun
TTITLE8=Johnny Cash - Hank And Joe And Me
TTITLE9=Marty Robbins - The Strawberry Roan
TTITLE10=Johnny Cash - Remember The Alamo
TTITLE11=Marty Robbins - Streets Of Laredo
TTITLE12=Johnny Cash - Going To Memphis
TTITLE13=Marty Robbins - Song Of The Bandit
TTITLE14=Johnny Cash - Boss Jack
TTITLE15=Marty Robbins - The Master's Call
TTITLE16=Johnny Cash - Lost On The Desert
TTITLE17=Marty Robbins - The Hanging Tree
EXTD=
EXTT0=
EXTT1=
EXTT2=
EXTT3=
EXTT4=
EXTT5=
EXTT6=
EXTT7=
EXTT8=
EXTT9=
EXTT10=
EXTT11=
EXTT12=
EXTT13=
EXTT14=
EXTT15=
EXTT16=
EXTT17=
PLAYORDER=
